<svg width="279" height="47" viewBox="0 0 279 47" fill="none" xmlns="http://www.w3.org/2000/svg">
<path d="M17.392 0.303997C8.88 0.303997 2.224 5.232 2.224 12.72C2.224 20.528 7.472 23.6 15.856 25.52L18.096 26.096C24.112 27.44 27.76 29.168 27.76 33.648C27.76 37.936 24.432 41.328 18.096 41.328C10.736 41.328 6.64 37.36 6.64 30.192V28.912H0.368V30.448C0.368 41.008 7.024 46.896 17.968 46.896C27.184 46.896 34.032 41.904 34.032 33.392C34.032 25.712 28.784 22.448 20.4 20.528L18.16 20.016C12.4 18.672 8.496 17.456 8.496 12.592C8.496 8.496 12.272 5.872 17.392 5.872C23.088 5.872 27.44 8.56 27.44 14.512V16.432H33.648V14.064C33.648 5.296 26.672 0.303997 17.392 0.303997ZM40.471 1.2V6.896H54.935V46H61.271V6.896H75.735V1.2H40.471ZM117.15 14.704C117.15 6.384 111.198 1.264 103.006 1.264H84.1895V46H90.5255V28.144H100.126L109.342 46H116.318L106.59 27.76C112.798 26.48 117.15 21.744 117.15 14.704ZM90.5255 6.96H102.366C107.614 6.96 110.814 9.84 110.814 14.704C110.814 19.504 107.614 22.448 102.366 22.448H90.5255V6.96ZM125.612 18.352C125.612 21.232 127.788 23.344 130.604 23.344C133.484 23.344 135.596 21.232 135.596 18.352C135.596 15.472 133.484 13.36 130.604 13.36C127.788 13.36 125.612 15.472 125.612 18.352ZM125.612 41.904C125.612 44.784 127.788 46.896 130.604 46.896C133.484 46.896 135.596 44.784 135.596 41.904C135.596 39.024 133.484 36.912 130.604 36.912C127.788 36.912 125.612 39.024 125.612 41.904ZM143.458 1.2L151.202 46H161.698L170.018 7.664H170.786L179.106 46H189.538L197.282 1.2H190.946L184.546 39.536H183.778L175.394 1.2H165.41L157.026 39.536H156.258L149.858 1.2H143.458ZM206.29 1.2V46H235.218V40.304H212.626V26.352H233.106V20.592H212.626V6.896H234.898V1.2H206.29ZM278.012 14.704C278.012 6.384 272.06 1.264 263.868 1.264H245.052V46H251.388V28.144H260.988L270.204 46H277.18L267.452 27.76C273.66 26.48 278.012 21.744 278.012 14.704ZM251.388 6.96H263.228C268.476 6.96 271.676 9.84 271.676 14.704C271.676 19.504 268.476 22.448 263.228 22.448H251.388V6.96Z" fill="black"/>
</svg>
